<svg xmlns="http://www.w3.org/2000/svg" viewBox="0 0 48 48"><path d="M29.98 4.95L43.49 12.75L43.49 29.22L38.72 27.94L38.72 15.50L28.52 9.61Z" fill="#4285F4"/><path d="M38.72 25.94L38.72 27.94L32.83 26.37L32.83 25.16Z" fill="#4285F4"/><path d="M37.16 25.73L37.16 31.60L24.00 39.20L21.00 37.47L21.98 33.04L24.00 34.20L32.83 29.10L32.83 25.16Z" fill="#4285F4"/><path d="M43.49 30.11L43.49 35.25L24.00 46.50L18.78 43.49L20.06 38.72L24.00 41.00L38.72 32.50L38.72 28.62Z" fill="#EA4335"/><path d="M21.92 39.80L20.06 38.72L21.63 32.83L22.75 33.48Z" fill="#EA4335"/><path d="M22.14 38.13L10.84 31.60L10.84 21.06L15.17 22.03L15.17 29.10L22.75 33.48Z" fill="#EA4335"/><path d="M18.02 43.05L4.51 35.25L4.51 18.78L9.28 20.06L9.28 32.50L19.48 38.39Z" fill="#FBBC05"/><path d="M9.28 22.06L9.28 20.06L15.17 21.63L15.17 22.84Z" fill="#FBBC05"/><path d="M10.84 22.27L10.84 16.40L24.00 8.80L27.00 10.53L26.02 14.96L24.00 13.80L15.17 18.90L15.17 22.84Z" fill="#FBBC05"/><path d="M4.51 17.89L4.51 12.75L24.00 1.50L29.22 4.51L27.94 9.28L24.00 7.00L9.28 15.50L9.28 19.38Z" fill="#34A853"/><path d="M26.08 8.20L27.94 9.28L26.37 15.17L25.25 14.52Z" fill="#34A853"/><path d="M25.86 9.87L37.16 16.40L37.16 26.94L32.83 25.97L32.83 18.90L25.25 14.52Z" fill="#34A853"/><g transform="translate(24.3 24) scale(0.33) translate(-24 -27)"><path d="M33 9.6C29.4 7.6 24 8.2 21.2 12.2C18.6 16 18.4 21 17 25.6C15.8 29.6 14.4 32.4 12.6 35" fill="none" stroke="#EA4335" stroke-width="3.8" stroke-linecap="round" stroke-linejoin="round"/><path d="M32.4 24.2C31.2 29 27.6 33.2 22.4 35.6C19.6 36.8 17 37.2 14.8 37" fill="none" stroke="#EA4335" stroke-width="3.8" stroke-linecap="round" stroke-linejoin="round"/><path d="M27.4 19.8C27.6 25.6 24.6 30.6 18.8 33.4" fill="none" stroke="#FBBC05" stroke-width="3.8" stroke-linecap="round" stroke-linejoin="round"/><path d="M12.6 35L4.6 44.6" fill="none" stroke="#4285F4" stroke-width="3.8" stroke-linecap="round" stroke-linejoin="round"/><path d="M14.8 37L8.8 45.8" fill="none" stroke="#FBBC05" stroke-width="3.8" stroke-linecap="round" stroke-linejoin="round"/><path d="M17.4 37.4L14 45.4" fill="none" stroke="#34A853" stroke-width="3.8" stroke-linecap="round" stroke-linejoin="round"/><path d="M33 9.6C39.4 8.2 43.8 12.4 43.6 18.6C43.5 22.2 42 25 39.6 26.4" fill="none" stroke="#202124" stroke-width="3.8" stroke-linecap="round" stroke-linejoin="round"/><path d="M32.8 20.8C35 20 37.4 20.8 38.4 22.8" fill="none" stroke="#202124" stroke-width="3.8" stroke-linecap="round" stroke-linejoin="round"/><circle cx="28" cy="14.8" r="2.41" fill="#202124"/></g></svg>
